<svg id="Layer_1" data-name="Layer 1" xmlns="http://www.w3.org/2000/svg" viewBox="0 0 1240 600">
  <title>Artboard 1 copy 14</title>
  <rect x="319.96" y="239.99" width="120" height="40" style="fill: #ff6136"/>
  <rect x="239.96" y="319.99" width="200" height="40" style="fill: #ff6136"/>
  <rect x="951.96" y="196" width="48" height="24"/>
  <polygon points="871.96 340 899.96 340 899.96 360 923.96 360 923.96 316 871.96 316 871.96 340"/>
  <path d="M1000,240H976v32H924V240H900v32H858a14,14,0,0,1-14-14V240H820v18a14,14,0,0,1-28,0V240H768v18a14,14,0,0,1-14,14H740V240H716v32H588v24h28v4a36,36,0,0,1-72,0V272H520v28a60,60,0,0,0,120,0v-4H754a37.81,37.81,0,0,0,26-10.33,37.89,37.89,0,0,0,52,0A37.83,37.83,0,0,0,858,296h142Z"/>
</svg>
