<svg width="0" height="0" class="hidden">
  <symbol id="email" xmlns="http://www.w3.org/2000/svg" viewBox="0 0 122.88 88.86">
    <title>email</title>
    <path d="M7.05,0H115.83a7.07,7.07,0,0,1,7,7.05V81.81a7,7,0,0,1-1.22,4,2.78,2.78,0,0,1-.66,1,2.62,2.62,0,0,1-.66.46,7,7,0,0,1-4.51,1.65H7.05a7.07,7.07,0,0,1-7-7V7.05A7.07,7.07,0,0,1,7.05,0Zm-.3,78.84L43.53,40.62,6.75,9.54v69.3ZM49.07,45.39,9.77,83.45h103L75.22,45.39l-11,9.21h0a2.7,2.7,0,0,1-3.45,0L49.07,45.39Zm31.6-4.84,35.46,38.6V9.2L80.67,40.55ZM10.21,5.41,62.39,47.7,112.27,5.41Z"></path>
  </symbol>
  <symbol xmlns="http://www.w3.org/2000/svg" shape-rendering="geometricPrecision" text-rendering="geometricPrecision" image-rendering="optimizeQuality" fill-rule="evenodd" clip-rule="evenodd" viewBox="0 0 3333 3333" id="facebook">
    <path d="M1667 0c920 0 1667 746 1667 1667 0 920-746 1667-1667 1667C747 3334 0 2588 0 1667 0 747 746 0 1667 0zm186 1117h311V744h-311c-240 0-435 195-435 435v186h-249v373h249v994h373v-994h311l62-373h-373v-186c0-34 28-62 62-62z"></path>
  </symbol>
  <symbol xmlns="http://www.w3.org/2000/svg" shape-rendering="geometricPrecision" text-rendering="geometricPrecision" image-rendering="optimizeQuality" fill-rule="evenodd" clip-rule="evenodd" viewBox="0 0 3333 3333" id="linkedin">
    <path d="M1667 0c920 0 1667 746 1667 1667 0 920-746 1667-1667 1667C747 3334 0 2588 0 1667 0 747 746 0 1667 0zm-215 1336h342v175h5c48-86 164-175 338-175 361 0 428 225 428 517v596h-357v-528c0-126-3-288-186-288-186 0-214 137-214 279v537h-357V1336zm-247-309c0 102-83 186-186 186-102 0-186-83-186-186 0-102 83-186 186-186 102 0 186 83 186 186zm-371 309h371v1113H834V1336z"></path>
  </symbol>
  <symbol xmlns="http://www.w3.org/2000/svg" shape-rendering="geometricPrecision" text-rendering="geometricPrecision" image-rendering="optimizeQuality" fill-rule="evenodd" clip-rule="evenodd" viewBox="0 0 512 437.15" id="mobile">
    <path d="M180.84 0h150.33c13.67 0 26.14 5.58 35.04 14.54 9.02 9.02 14.51 21.43 14.51 35.04v338.01c0 13.68-5.56 26.15-14.51 35.03-9.04 9.05-21.44 14.53-35.04 14.53H180.84c-13.68 0-26.16-5.56-35.04-14.52-9.03-9.02-14.53-21.43-14.53-35.04V49.51c0-13.68 5.57-26.16 14.53-35.05C154.82 5.44 167.16 0 180.84 0zm289.72 327.5c-3.56 3.83-9.55 4.05-13.38.49-3.82-3.56-4.04-9.55-.48-13.37 11.49-12.36 20.71-26.87 26.98-42.84 6.03-15.37 9.35-32.14 9.35-49.72 0-19.23-3.95-37.46-11.06-53.93-7.41-17.14-18.29-32.48-31.75-45.14-3.81-3.58-3.99-9.57-.41-13.38 3.58-3.8 9.57-3.98 13.37-.4a155.114 155.114 0 0 1 36.12 51.44c8.17 18.89 12.7 39.67 12.7 61.41 0 19.94-3.79 39.05-10.69 56.61-7.15 18.21-17.66 34.75-30.75 48.83zm-33.31-33.03c-3.33 4.01-9.29 4.56-13.3 1.22-4.01-3.33-4.55-9.28-1.22-13.29 7.06-8.51 12.7-18.25 16.52-28.84 3.66-10.16 5.66-21.2 5.66-32.77 0-13.04-2.55-25.42-7.17-36.67a96.839 96.839 0 0 0-20.68-31.18c-3.68-3.7-3.67-9.69.03-13.37 3.7-3.68 9.7-3.67 13.37.03 10.51 10.62 18.99 23.29 24.76 37.33 5.58 13.58 8.66 28.39 8.66 43.86 0 13.66-2.42 26.85-6.86 39.14-4.57 12.7-11.32 24.36-19.77 34.54zM55.3 314.62c3.56 3.82 3.34 9.81-.48 13.37-3.83 3.56-9.82 3.34-13.37-.49-13.1-14.08-23.61-30.62-30.76-48.83C3.79 261.11 0 242 0 222.06c0-21.74 4.53-42.52 12.7-61.41 8.47-19.6 20.84-37.07 36.12-51.44 3.8-3.58 9.79-3.4 13.37.4 3.58 3.81 3.4 9.8-.41 13.38-13.46 12.66-24.34 28-31.75 45.14-7.11 16.47-11.06 34.7-11.06 53.93 0 17.58 3.32 34.35 9.35 49.72 6.27 15.97 15.5 30.48 26.98 42.84zm33.97-32.22c3.33 4.01 2.79 9.96-1.22 13.29-4.01 3.34-9.97 2.79-13.3-1.22a115.372 115.372 0 0 1-19.77-34.54 115.027 115.027 0 0 1-6.86-39.14c0-15.47 3.08-30.28 8.66-43.86 5.77-14.04 14.25-26.71 24.76-37.33 3.68-3.7 9.67-3.71 13.37-.03 3.7 3.68 3.71 9.67.03 13.37-8.77 8.87-15.85 19.45-20.67 31.18-4.63 11.25-7.18 23.63-7.18 36.67 0 11.57 2 22.61 5.66 32.77a96.693 96.693 0 0 0 16.52 28.84zM256 383.82c11.22 0 20.38 9.03 20.38 20.38 0 11.22-9.03 20.39-20.38 20.39-6.96 0-13.14-3.49-16.82-8.85a20.425 20.425 0 0 1-3.57-11.54c.01-11.21 9.03-20.38 20.39-20.38zm-112.44-15.51 224.88-.01V54.06H143.56v314.25z"></path>
  </symbol>
  <symbol xmlns="http://www.w3.org/2000/svg" shape-rendering="geometricPrecision" text-rendering="geometricPrecision" image-rendering="optimizeQuality" fill-rule="evenodd" clip-rule="evenodd" viewBox="0 0 433 511.65" id="location">
    <path fill-rule="nonzero" d="M192.07 93.48c27.87 0 53.13 11.32 71.39 29.58 18.26 18.26 29.57 43.53 29.57 71.41 0 27.88-11.31 53.14-29.57 71.39-18.26 18.26-43.52 29.58-71.39 29.58-27.88 0-53.14-11.32-71.4-29.58-18.26-18.25-29.57-43.51-29.57-71.39 0-27.88 11.31-53.15 29.57-71.41 18.26-18.26 43.52-29.58 71.4-29.58zM323.4 292.84c-5.86 0-11.58.57-17.08 1.67-11.33 2.25-21.86 6.61-31.48 13.04a85.577 85.577 0 0 0-13.23 10.9c-8.15 8.14-14.54 17.76-18.95 28.41a87.95 87.95 0 0 0-4.95 16.36 87.273 87.273 0 0 0-1.66 17c0 11.5 2.23 22.83 6.61 33.48a84.74 84.74 0 0 0 8.06 15.06c6.39 9.56 14.65 17.73 24.21 24.1 4.76 3.17 9.84 5.91 15.13 8.1 5.1 2.11 10.52 3.78 16.14 4.91 18.2 3.13 35.14 1.85 51.86-5.42 3-1.3 5.97-2.8 8.83-4.46a7.127 7.127 0 0 1 9.07 1.24l31.31 34.49 25.73-23.6-32.67-35.65c-2.25-2.21-2.84-5.74-1.2-8.62 1.65-2.92 3.21-5.97 4.55-9.13 1.32-3.07 2.51-6.29 3.47-9.56 4.02-13.58 4.72-27.76 2.01-41.72l-.04-.24c-3.39-17.03-11.63-32.51-23.93-44.77-16.37-16.41-38.72-25.59-61.79-25.59zm36.69 32.31c3.71 2.49 7.1 5.27 10.09 8.24 9.15 9.25 15.62 21.08 18.12 33.88 2.51 12.77 1.3 26.18-3.74 38.21-1.66 4.04-3.75 7.9-6.13 11.47-2.43 3.63-5.21 7-8.27 10.04a67.026 67.026 0 0 1-10.07 8.28c-18.18 12.18-41.62 14.59-62.01 6.09a66.001 66.001 0 0 1-11.38-6.11 66.1 66.1 0 0 1-18.31-18.24 65.887 65.887 0 0 1-11.18-36.79c0-8.77 1.75-17.21 4.91-24.96l.14-.36a66.71 66.71 0 0 1 14.35-21.51c3-2.97 6.41-5.77 10.11-8.24 7.1-4.71 15.42-8.2 23.76-9.86 4.22-.82 8.54-1.26 12.92-1.26 13.13 0 25.73 3.87 36.69 11.12zM197.78 486.51c8.21-5.22 16.15-10.76 23.82-16.64 4.08 6.51 8.7 12.66 13.78 18.4a360.541 360.541 0 0 1-30.91 21.13c-3.71 2.74-8.9 3.08-13.02.48-44.95-28.55-82.67-63-112.4-100.28C38.1 358.2 12.27 301.18 3.44 246.35-5.53 190.71 2.9 137.16 30.57 93.6c10.9-17.17 24.86-32.83 41.9-46.39C111.5 16.1 156.2-.37 200.54.01c42.73.37 85.06 16.3 121.64 49.68 12.81 11.68 23.6 25 32.41 39.5 29.44 48.56 36.04 110.43 23.48 173.19-7.27-2.12-14.81-3.63-22.52-4.52 11.46-57.34 5.7-113.37-20.6-156.77a156.229 156.229 0 0 0-28.27-34.36C274.48 37.35 237.49 23.31 200.35 23c-39.02-.32-78.63 14.39-113.57 42.23-14.91 11.87-27.15 25.61-36.73 40.71-24.57 38.69-31.98 86.66-23.9 136.82 8.2 50.94 32.43 104.22 70.92 152.52 26.82 33.62 60.57 64.85 100.71 91.23zm49.39-347.17c-14.08-14.07-33.59-22.83-55.1-22.83-21.52 0-41.03 8.76-55.11 22.83-14.08 14.08-22.83 33.62-22.83 55.13 0 21.51 8.75 41.03 22.83 55.11 14.08 14.08 33.59 22.83 55.11 22.83 21.51 0 41.02-8.75 55.1-22.83 14.08-14.08 22.84-33.6 22.84-55.11 0-21.51-8.76-41.05-22.84-55.13z"></path>
  </symbol>
  <symbol xmlns="http://www.w3.org/2000/svg" shape-rendering="geometricPrecision" text-rendering="geometricPrecision" image-rendering="optimizeQuality" fill-rule="evenodd" clip-rule="evenodd" viewBox="0 0 3333 3333" id="twitter">
    <path d="M1667 0c920 0 1667 746 1667 1667 0 920-746 1667-1667 1667C747 3334 0 2588 0 1667 0 747 746 0 1667 0zm900 1108c-66 30-137 49-212 58 76-46 135-118 162-204-71 42-151 73-234 90-68-72-163-116-270-116-204 0-369 165-369 369 0 29 3 57 9 84-307-16-579-162-761-386-33 56-50 120-50 186 0 128 65 241 164 307-61-2-117-19-167-46v5c0 179 127 328 296 362-31 8-64 13-97 13-24 0-47-2-70-7 47 147 183 253 345 257-127 99-285 158-459 158-30 0-59-2-88-5 164 105 358 166 566 166 679 0 1051-563 1051-1051 0-16 0-32-1-48 72-52 135-117 184-191z"></path>
  </symbol>
</svg>